# xmcd CD database file
#
# Track frame offsets:
#	150
#	33007
#	63671
#	83460
#	109620
#	155302
#	180464
#	222378
#	244447
#	289375
#	323501
#
# Disc length: 4768 seconds
#
# Revision: 0
# Processed by: cddbd v1.5.2PL0 Copyright (c) Steve Scherf et al.
# Submitted via: CDex 1.51
#
DISCID=90129e0b
DTITLE=Orchestra Jazz Siciliana - Three Drums Show
DYEAR=2009
DGENRE=Jazz
TTITLE0=Viento Caliente
TTITLE1=Rumbeando Al Norte
TTITLE2=Full Nelson
TTITLE3=In The Still Of The Night
TTITLE4=Manteca
TTITLE5=Marianela
TTITLE6=Scotland
TTITLE7=Kisschicken
TTITLE8=El Madero
TTITLE9=Bunt Object
TTITLE10=Ojs
EXTD=YEAR: 2009
EXTT0=
EXTT1=
EXTT2=
EXTT3=
EXTT4=
EXTT5=
EXTT6=
EXTT7=
EXTT8=
EXTT9=
EXTT10=
PLAYORDER=
